# xmcd
#
# Track frame offsets: 
#        150
#        12945
#        30643
#        48376
#        63425
#        85309
#        104967
#        124438
#        138071
#        155554
#        172978
#        191514
#
# Disc length: 2714 seconds
#
# Revision: 0
# Processed by: cddbd v1.5.2PL0 Copyright (c) Steve Scherf et al.
# Submitted via: ExactAudioCopy v1.0b4
#
DISCID=a30a980c
DTITLE=Big Pete Pearson - Steppin' Out
DYEAR=2014
DGENRE=Blues
TTITLE0=You Raise Hell Everyday
TTITLE1=Part Time Love
TTITLE2=Mr. Blues
TTITLE3=Salt In My Coffee
TTITLE4=Too Much Trouble
TTITLE5=Real Bad Dream
TTITLE6=Singin' With The Best
TTITLE7=Mr. Brown
TTITLE8=Come On Kelly
TTITLE9=Blues Wagon
TTITLE10=Long Way From Home
TTITLE11=Tears Of Love
EXTD=
EXTT0=
EXTT1=
EXTT2=
EXTT3=
EXTT4=
EXTT5=
EXTT6=
EXTT7=
EXTT8=
EXTT9=
EXTT10=
EXTT11=
PLAYORDER=
